<svg xmlns="http://www.w3.org/2000/svg" width="1440" height="980" viewBox="0 0 1440 980">
  <defs>
    <linearGradient id="brand" x1="0" y1="0" x2="1" y2="1">
      <stop offset="0" stop-color="#009bf5"/>
      <stop offset="1" stop-color="#0081cc"/>
    </linearGradient>
    <filter id="shadow" x="-20%" y="-20%" width="140%" height="140%">
      <feDropShadow dx="0" dy="18" stdDeviation="18" flood-color="#0f172a" flood-opacity="0.16"/>
    </filter>
    <symbol id="logo" viewBox="0 0 128 128">
      <circle cx="64" cy="56" r="28" fill="url(#brand)" opacity="0.14"/>
      <path d="M40 70c2 14 14 24 24 24s22-10 24-24" fill="none" stroke="#009bf5" stroke-width="6" stroke-linecap="round"/>
      <path d="M38 64c8 6 18 9 26 9s18-3 26-9" fill="none" stroke="#0088d9" stroke-width="6" stroke-linecap="round" opacity="0.9"/>
      <path d="M86 32l10-6" stroke="#009bf5" stroke-width="6" stroke-linecap="round"/>
      <path d="M92 44l12-4" stroke="#009bf5" stroke-width="6" stroke-linecap="round" opacity="0.85"/>
      <circle cx="52" cy="52" r="3.5" fill="#009bf5" opacity="0.9"/>
      <circle cx="76" cy="52" r="3.5" fill="#009bf5" opacity="0.9"/>
    </symbol>
    <style>
      .bg { fill: #eef6fb; }
      .phone { fill: #f8fafc; stroke: #dbeafe; stroke-width: 2; filter: url(#shadow); }
      .status { fill: #111827; font: 700 12px -apple-system, BlinkMacSystemFont, "Segoe UI", sans-serif; }
      .screen-title { fill: #111827; font: 800 24px -apple-system, BlinkMacSystemFont, "Segoe UI", sans-serif; }
      .brand-title { fill: #009bf5; font: 800 34px -apple-system, BlinkMacSystemFont, "Segoe UI", sans-serif; }
      .section { fill: #111827; font: 800 18px -apple-system, BlinkMacSystemFont, "Segoe UI", sans-serif; }
      .text { fill: #374151; font: 600 16px -apple-system, BlinkMacSystemFont, "Segoe UI", sans-serif; }
      .muted { fill: #6b7280; font: 500 13px -apple-system, BlinkMacSystemFont, "Segoe UI", sans-serif; }
      .small { fill: #64748b; font: 600 12px -apple-system, BlinkMacSystemFont, "Segoe UI", sans-serif; }
      .white { fill: #ffffff; font: 800 15px -apple-system, BlinkMacSystemFont, "Segoe UI", sans-serif; }
      .card { fill: #ffffff; stroke: #e5e7eb; stroke-width: 1.5; }
      .panel { fill: #f1f5f9; }
      .brand-card { fill: url(#brand); }
      .accent { fill: #009bf5; }
      .accent-soft { fill: #e0f2fe; }
      .success { fill: #dcfce7; }
      .success-text { fill: #166534; font: 800 12px -apple-system, BlinkMacSystemFont, "Segoe UI", sans-serif; }
      .warn { fill: #fef3c7; }
      .warn-text { fill: #92400e; font: 800 12px -apple-system, BlinkMacSystemFont, "Segoe UI", sans-serif; }
      .danger { fill: #fee2e2; }
      .danger-text { fill: #991b1b; font: 800 12px -apple-system, BlinkMacSystemFont, "Segoe UI", sans-serif; }
      .pill-text { fill: #007ccc; font: 800 12px -apple-system, BlinkMacSystemFont, "Segoe UI", sans-serif; }
      .button { fill: #009bf5; }
      .button-text { fill: #ffffff; font: 800 13px -apple-system, BlinkMacSystemFont, "Segoe UI", sans-serif; }
      .darkbar { fill: #111827; }
      .line { stroke: #e5e7eb; stroke-width: 1.5; }
      .bar { fill: #bae6fd; }
      .bar-strong { fill: #009bf5; }
    </style>
  </defs>

  <rect class="bg" width="1440" height="980"/>
  <text x="72" y="78" class="brand-title">Infinitech 2.0 Flutter UI 预览</text>
  <text x="72" y="112" class="muted">商户端、骑手端、移动管理端先以 Flutter/Dart 重建；用户微信小程序继续使用 WXML/WXSS/TypeScript。</text>

  <g transform="translate(82 160)">
    <rect class="phone" x="0" y="0" width="360" height="720" rx="36"/>
    <text x="34" y="44" class="status">9:41</text>
    <text x="34" y="86" class="screen-title">商户工作台</text>
    <use href="#logo" x="282" y="42" width="46" height="46"/>

    <rect class="brand-card" x="28" y="114" width="304" height="132" rx="24"/>
    <text x="52" y="150" class="white">蓝海餐厅</text>
    <text x="52" y="178" class="white" opacity="0.82">营业中 · 资质已通过 · 保证金正常</text>
    <text x="52" y="218" class="white">今日营业额 ¥4,286</text>
    <rect x="236" y="186" width="72" height="36" rx="18" fill="#ffffff" opacity="0.22"/>
    <text x="252" y="209" class="white">接单中</text>

    <text x="28" y="286" class="section">实时订单</text>
    <rect class="card" x="28" y="306" width="304" height="124" rx="20"/>
    <rect class="warn" x="48" y="328" width="70" height="28" rx="14"/>
    <text x="62" y="347" class="warn-text">待接单</text>
    <text x="48" y="380" class="text">订单 #10031 · ¥55.98</text>
    <text x="48" y="406" class="muted">望京SOHO · 预计 32 分钟送达</text>
    <rect class="button" x="230" y="368" width="78" height="38" rx="14"/>
    <text x="244" y="392" class="button-text">接单</text>

    <rect class="card" x="28" y="450" width="142" height="100" rx="20"/>
    <text x="48" y="484" class="muted">备餐中</text>
    <text x="48" y="524" class="screen-title">12</text>
    <rect class="card" x="190" y="450" width="142" height="100" rx="20"/>
    <text x="210" y="484" class="muted">待骑手</text>
    <text x="210" y="524" class="screen-title">7</text>

    <text x="28" y="590" class="section">高频入口</text>
    <rect class="accent-soft" x="28" y="610" width="88" height="58" rx="18"/>
    <text x="50" y="645" class="pill-text">商品</text>
    <rect class="accent-soft" x="136" y="610" width="88" height="58" rx="18"/>
    <text x="158" y="645" class="pill-text">团购</text>
    <rect class="accent-soft" x="244" y="610" width="88" height="58" rx="18"/>
    <text x="260" y="645" class="pill-text">通知</text>
  </g>

  <g transform="translate(540 160)">
    <rect class="phone" x="0" y="0" width="360" height="720" rx="36"/>
    <text x="34" y="44" class="status">9:41</text>
    <text x="34" y="86" class="screen-title">骑手接单</text>
    <rect class="success" x="246" y="54" width="86" height="34" rx="17"/>
    <text x="264" y="76" class="success-text">在线</text>

    <rect class="brand-card" x="28" y="114" width="304" height="114" rx="24"/>
    <text x="52" y="150" class="white">可接容量 3 单</text>
    <text x="52" y="178" class="white" opacity="0.82">距商户 1.8km · 保证金正常</text>
    <text x="52" y="208" class="white">今日已完成 18 / 固定 20</text>

    <text x="28" y="268" class="section">派单卡片</text>
    <rect class="card" x="28" y="288" width="304" height="172" rx="22"/>
    <rect class="accent-soft" x="48" y="312" width="64" height="64" rx="18"/>
    <text x="62" y="350" class="pill-text">取</text>
    <text x="128" y="326" class="text">蓝海餐厅</text>
    <text x="128" y="352" class="muted">取餐剩余 08:32</text>
    <line class="line" x1="80" y1="382" x2="80" y2="420"/>
    <rect class="success" x="48" y="418" width="64" height="64" rx="18"/>
    <text x="62" y="456" class="success-text">送</text>
    <text x="128" y="432" class="text">望京SOHO A座</text>
    <text x="128" y="458" class="muted">预计收入 ¥8.20</text>

    <rect class="button" x="48" y="494" width="124" height="46" rx="16"/>
    <text x="76" y="523" class="button-text">确认接单</text>
    <rect class="danger" x="188" y="494" width="124" height="46" rx="16"/>
    <text x="222" y="523" class="danger-text">拒绝</text>

    <text x="28" y="586" class="section">今日表现</text>
    <rect class="card" x="28" y="606" width="304" height="72" rx="20"/>
    <text x="50" y="636" class="muted">平均接单耗时</text>
    <text x="50" y="662" class="text">42 秒 · A 级优先派单</text>
    <rect class="bar" x="204" y="638" width="88" height="10" rx="5"/>
    <rect class="bar-strong" x="204" y="638" width="64" height="10" rx="5"/>
  </g>

  <g transform="translate(998 160)">
    <rect class="phone" x="0" y="0" width="360" height="720" rx="36"/>
    <text x="34" y="44" class="status">9:41</text>
    <text x="34" y="86" class="screen-title">移动管理</text>
    <rect class="danger" x="248" y="54" width="84" height="34" rx="17"/>
    <text x="266" y="76" class="danger-text">高风险</text>

    <rect class="card" x="28" y="114" width="304" height="108" rx="22"/>
    <text x="52" y="148" class="muted">今日待办</text>
    <text x="52" y="184" class="screen-title">26</text>
    <text x="140" y="148" class="muted">退款审核</text>
    <text x="140" y="184" class="screen-title">8</text>
    <text x="236" y="148" class="muted">告警</text>
    <text x="236" y="184" class="screen-title">3</text>

    <text x="28" y="264" class="section">紧急队列</text>
    <rect class="card" x="28" y="284" width="304" height="96" rx="20"/>
    <rect class="danger" x="48" y="310" width="66" height="28" rx="14"/>
    <text x="62" y="329" class="danger-text">退款</text>
    <text x="128" y="318" class="text">订单 #10031</text>
    <text x="128" y="346" class="muted">用户售后已通过，待资金处理</text>
    <rect class="card" x="28" y="400" width="304" height="96" rx="20"/>
    <rect class="warn" x="48" y="426" width="66" height="28" rx="14"/>
    <text x="62" y="445" class="warn-text">调度</text>
    <text x="128" y="434" class="text">3 单超过派单阈值</text>
    <text x="128" y="462" class="muted">建议查看站点骑手在线状态</text>

    <text x="28" y="536" class="section">操作入口</text>
    <rect class="accent-soft" x="28" y="556" width="142" height="58" rx="18"/>
    <text x="54" y="591" class="pill-text">订单监控</text>
    <rect class="accent-soft" x="190" y="556" width="142" height="58" rx="18"/>
    <text x="216" y="591" class="pill-text">骑手调度</text>
    <rect class="accent-soft" x="28" y="632" width="142" height="58" rx="18"/>
    <text x="54" y="667" class="pill-text">通知告警</text>
    <rect class="accent-soft" x="190" y="632" width="142" height="58" rx="18"/>
    <text x="216" y="667" class="pill-text">审计追踪</text>
  </g>
</svg>
